<?xml version="1.0" encoding="UTF-8"?><svg id="Calque_1" xmlns="http://www.w3.org/2000/svg" viewBox="0 0 183.68 124.74"><defs><style>.cls-1{fill:#00664b;}.cls-2{fill:#e30613;}.cls-3{fill:#008b92;}</style></defs><rect class="cls-1" x="41.97" y="66.97" width="99.95" height="8.94"/><g><path class="cls-2" d="M149.34,10.35s-15.72,9.02-19.4,10.39c-3.38,1.33-4.71-.39-5.03-1.06-.67-.65-2.65-6.64-2.64-6.65-.01,0,.98,0,2.97-.32C127.61,12.04,149.31,0,149.34,0V10.35Z"/><path class="cls-1" d="M105.52,18.31l6.75,16.89,11.91-6.27-10.32-22.87h-15.02l-21.09,39.35s10.37-.32,17.01-5.32c1.68-.99,6.41-13.42,10.75-21.78"/><path class="cls-3" d="M124.18,28.94l-11.91,6.27c-10.2,5.22-19.89,9.8-25.1,11.28-13.76,3.96-30.52,6.34-36.54,1.01-5.66-5.02,7.41-26.07,32.14-30.76,3.98-.99,6.35-.66,6.35-.64,0-.03-1.97-7.73-3.01-8.71-2-2.06-3.65-2.72-6.35-2.38-5.36,.32-28.13,6.39-37.11,25.36-5.01,10.78,1.99,22.12,6.34,25.08,1.33,1.06,14.73,12.73,44.47,1.07,29.46-11.43,55.86-29.43,55.88-29.43V15.05s-11.65,6.65-25.16,13.89"/><path class="cls-1" d="M116.45,46.18c1.1,2.59,4.27,10.12,5.08,12.29,1.06,2.38,3.7,2.38,3.7,2.37h13.74l-10.24-21.22c-3.75,2.11-7.88,4.32-12.28,6.56"/><path class="cls-1" d="M5.98,101.73c3.03,0,4.63-1.81,4.63-4.16,0-2.64-2.06-4-5.58-4h-1.7v8.16h2.65ZM0,90.84H5.19c4.36,0,8.74,2.13,8.74,6.89,0,3.73-3,6.04-6.49,6.04H0v-12.94Z"/><path class="cls-1" d="M20.48,97.06c.69-1.06,.81-.89,3.13-.91h3.54s-1.09,1.52-1.09,1.52c-.37,.52-.79,.58-1.39,.58h-4.97l.77-1.19Zm-4.31-6.22h11.83l.82,2.33h-9.34v8.38h9.67l-1,2.22h-11.98v-12.93Z"/></g><polygon class="cls-1" points="36.79 103.78 36.79 90.84 40.17 90.84 40.17 101.57 47.08 101.57 46.04 103.78 36.79 103.78"/><g><path class="cls-1" d="M60.39,103.78l-4.58-10.46-2.52,5.36h4.49c-.85,2.12-1.54,2.24-2.78,2.24h-2.74l-1.28,2.86h-3.43l6.19-12.94h4.36l5.94,12.94h-3.64Z"/><path class="cls-1" d="M73.73,93.14h-4.98l1.15-2.3h12.65s-.28,.94-.83,1.7c-.43,.6-1.41,.6-2.28,.6h-2.28v10.64h-3.42v-10.64Z"/><path class="cls-1" d="M85.54,97.36c-.03,2.42,1.46,4.61,4.4,4.61,2.67,0,4.24-2.24,4.18-4.68-.06-2.36-1.65-4.34-4.18-4.34-2.73,0-4.37,2-4.4,4.42m-3.64,.11c0-4.04,3.01-6.74,8.04-6.74,4.33,0,7.79,2.55,7.79,6.82,0,3.46-2.56,6.61-7.79,6.61s-8.04-3.29-8.04-6.69"/><path class="cls-1" d="M100.07,98.78v-7.94h3.27v7.61c0,1.82,.87,3.42,3.19,3.42,2.46,0,3.25-1.6,3.25-3.42v-7.61h3.21v7.94c0,4.06-2.98,5.54-6.5,5.54s-6.42-1.48-6.42-5.54"/><path class="cls-1" d="M120.17,99.03c.18-.48,.61-1.24,.94-1.71,.3-.43,.58-.57,1.28-.57,.49,0,1.15,.03,1.88-.11,1.21-.22,1.58-.87,1.58-1.78,0-1.94-2.69-1.78-4.36-1.78h-1.99v10.68h-3.4v-12.88h8.07c3.37,0,5.12,1.56,5.12,3.97,0,1.67-1.04,2.82-2.74,3.33l3.49,5.58h-3.75l-3-4.75h-3.13Z"/><path class="cls-1" d="M142.9,103.78l-4.58-10.46-2.52,5.36h4.49c-.85,2.12-1.54,2.24-2.78,2.24h-2.74l-1.28,2.86h-3.43l6.2-12.94h4.36l5.94,12.94h-3.64Z"/></g><rect class="cls-1" x="147.95" y="90.84" width="3.39" height="12.93"/><polygon class="cls-1" points="154.62 90.84 158.71 90.84 164.62 99.7 164.62 90.84 167.53 90.84 167.53 103.77 163.78 103.77 157.37 94.41 157.37 103.77 154.62 103.77 154.62 90.84"/><g><path class="cls-1" d="M175.01,97.06c.69-1.06,.81-.89,3.13-.91h3.54s-1.09,1.52-1.09,1.52c-.37,.52-.79,.58-1.39,.58h-4.97l.78-1.19Zm-4.31-6.22h11.83l.82,2.33h-9.34v8.38h9.67l-1,2.22h-11.98v-12.93Z"/><path class="cls-1" d="M19.86,117.49c.69-1.06,.81-.89,3.13-.91h3.54s-1.09,1.52-1.09,1.52c-.37,.52-.79,.58-1.39,.58h-4.97l.77-1.19Zm-4.31-6.22h11.83l.82,2.33h-9.34v8.38h9.67l-1,2.23H15.55v-12.94Z"/><path class="cls-1" d="M33.58,113.56h-4.98l1.15-2.3h12.65s-.28,.94-.83,1.7c-.43,.6-1.41,.6-2.28,.6h-2.28v10.64h-3.42v-10.64Z"/><path class="cls-1" d="M54.68,122.16c3.03,0,4.62-1.81,4.62-4.16,0-2.64-2.06-4-5.58-4h-1.7v8.16h2.66Zm-5.98-10.89h5.19c4.36,0,8.74,2.13,8.74,6.89,0,3.73-3,6.04-6.49,6.04h-7.44v-12.94Z"/><path class="cls-1" d="M64.39,119.2v-7.94h3.27v7.61c0,1.82,.87,3.42,3.19,3.42,2.46,0,3.25-1.6,3.25-3.42v-7.61h3.21v7.94c0,4.06-2.98,5.54-6.5,5.54s-6.42-1.48-6.42-5.54"/><path class="cls-1" d="M89.89,119.58c.19-.46,.73-1.42,1.06-1.89,.3-.43,.63-.39,1.33-.39,.48,0,.98,.04,1.71-.11,1.23-.22,1.59-.85,1.59-1.78,0-1.94-2.69-1.78-4.35-1.78h-1.98v10.56h-3.42v-12.88h8.07c3.37,.12,5.13,1.69,5.13,4.09,0,1.69-1.73,3.64-3.76,4-2.09,.37-5.39,.16-5.39,.16"/><path class="cls-1" d="M103.49,117.79c-.03,2.42,1.47,4.61,4.4,4.61,2.67,0,4.23-2.24,4.18-4.68-.06-2.36-1.66-4.34-4.18-4.34-2.73,0-4.37,2-4.4,4.42m-3.64,.11c0-4.04,3.01-6.74,8.04-6.74,4.33,0,7.79,2.55,7.79,6.82,0,3.46-2.56,6.61-7.79,6.61s-8.04-3.29-8.04-6.69"/></g><rect class="cls-1" x="118.01" y="111.27" width="3.39" height="12.94"/><g><path class="cls-1" d="M127.48,113.56h-4.98l1.15-2.3h12.65s-.28,.94-.83,1.7c-.43,.6-1.4,.6-2.28,.6h-2.28v10.64h-3.42v-10.64Z"/><path class="cls-1" d="M139.66,117.79c-.03,2.42,1.46,4.61,4.4,4.61,2.67,0,4.24-2.24,4.18-4.68-.06-2.36-1.66-4.34-4.18-4.34-2.73,0-4.37,2-4.4,4.42m-3.64,.11c0-4.04,3.01-6.74,8.04-6.74,4.33,0,7.79,2.55,7.79,6.82,0,3.46-2.57,6.61-7.79,6.61s-8.04-3.29-8.04-6.69"/><path class="cls-1" d="M154.56,119.2v-7.94h3.27v7.61c0,1.82,.87,3.42,3.19,3.42,2.46,0,3.25-1.6,3.25-3.42v-7.61h3.21v7.94c0,4.06-2.99,5.54-6.5,5.54s-6.42-1.48-6.42-5.54"/></g></svg>