<svg id="Groupe_12" data-name="Groupe 12" xmlns="http://www.w3.org/2000/svg" xmlns:xlink="http://www.w3.org/1999/xlink" width="81.466" height="81.466" viewBox="0 0 81.466 81.466">
  <defs>
    <clipPath id="clip-path">
      <rect id="Rectangle_33" data-name="Rectangle 33" width="81.466" height="81.466" fill="none"/>
    </clipPath>
  </defs>
  <g id="Groupe_12-2" data-name="Groupe 12" clip-path="url(#clip-path)">
    <path id="Tracé_9" data-name="Tracé 9" d="M40.733,0A40.735,40.735,0,0,0,8.388,65.5,13.65,13.65,0,0,1,0,77.092c7.861,2.414,13.1-.336,16.378-3.706A40.734,40.734,0,1,0,40.733,0" fill="#98cc00"/>
    <path id="Tracé_10" data-name="Tracé 10" d="M208.654,187.323a1.743,1.743,0,0,1-1.413-.711c-3.859-5.2-16.45-22.823-16.45-31.1a17.863,17.863,0,0,1,35.726,0c0,8.278-12.591,25.9-16.45,31.1a1.743,1.743,0,0,1-1.413.711m0-48.982a17.19,17.19,0,0,0-17.17,17.17c0,3.431,2.25,8.94,6.687,16.372,3.556,5.956,7.558,11.526,9.627,14.316a1.067,1.067,0,0,0,1.714,0c3.827-5.16,16.313-22.623,16.313-30.688a17.189,17.189,0,0,0-17.17-17.17m0,24.592a8.311,8.311,0,1,1,8.311-8.311,8.321,8.321,0,0,1-8.311,8.311m0-15.93a7.619,7.619,0,1,0,7.619,7.619A7.627,7.627,0,0,0,208.654,147" transform="translate(-168.759 -121.753)" fill="#fff"/>
  </g>
</svg>
